<?xml version="1.0" encoding="utf-8"?>
<svg id="master-artboard" viewBox="0 0 350 350" version="1.1" xmlns="http://www.w3.org/2000/svg" x="0px" y="0px" style="enable-background:new 0 0 1400 980;" width="350px" height="350px"><rect id="ee-background" x="0" y="0" width="350" height="350" style="fill: white; fill-opacity: 0; pointer-events: none;"/>

<path d="M 0 0 H 1400 V 980 H 0 V 0 Z" transform="matrix(1, 0, 0, 1, -2.842170943040401e-14, 0)"/>
<g transform="matrix(1, 0, 0, 1, -2.842170943040401e-14, 0)">
			<g>
				<path class="st35" d="M180.5,316.1L32.7,302.8l68.7-39.6l79.1,7.1V316.1z M259.6,263.1l-33.4-72.1l39.7-22.9l62.4,134.6&#10;&#9;&#9;&#9;&#9;&#9;L259.6,263.1z M180.5,126.1l-45.7,65l-39.7-22.9l85.4-121.3V126.1z" style="fill: rgb(215, 25, 32);"/>
				<path class="st36" d="M180.5,270.3l79.1-7.1l68.7,39.6l-147.8,13.3V270.3z M32.7,302.8l62.4-134.6l39.7,22.9l-33.4,72.1&#10;&#9;&#9;&#9;&#9;&#9;L32.7,302.8z M180.5,46.9l85.4,121.3l-39.7,22.9l-45.7-65V46.9z" style="fill: rgb(237, 28, 36);"/>
				<path d="M 259.6000061035156 263.1000061035156 L 226.1999969482422 191.10000610351562 L 180.5 126.0999984741211 L 134.8000030517578 191.10000610351562 L 101.4000015258789 263.1000061035156 L 180.5 270.29998779296875 Z" class="st37" style="fill: rgb(239, 65, 48);"/>
			</g>
			<linearGradient id="SVGID_17_" gradientUnits="userSpaceOnUse" x1="126.4639" y1="288.2212" x2="234.5205" y2="180.1645">
				<stop offset="0" style="stop-color:#FFFFFF"/>
				<stop offset="8.962709e-02" style="stop-color:#FFFFFF;stop-opacity:0.9104"/>
				<stop offset="1" style="stop-color:#FFFFFF;stop-opacity:0"/>
			</linearGradient>
			<path d="M 259.6000061035156 263.1000061035156 L 226.1999969482422 191.10000610351562 L 180.5 126.0999984741211 L 134.8000030517578 191.10000610351562 L 101.4000015258789 263.1000061035156 L 180.5 270.29998779296875 Z" class="st38" style="opacity: 0.5; fill: url('#SVGID_17_');"/>
			<linearGradient id="SVGID_18_" gradientUnits="userSpaceOnUse" x1="328.2593" y1="289.6077" x2="180.4922" y2="289.6077">
				<stop offset="0" style="stop-color:#FFFFFF"/>
				<stop offset="8.962709e-02" style="stop-color:#FFFFFF;stop-opacity:0.9104"/>
				<stop offset="1" style="stop-color:#FFFFFF;stop-opacity:0"/>
			</linearGradient>
			<path class="st39" d="M180.5,270.3l79.1-7.1l68.7,39.6l-147.8,13.3V270.3z" style="opacity: 0.5; fill: url('#SVGID_18_');"/>
			<linearGradient id="SVGID_19_" gradientUnits="userSpaceOnUse" x1="110.3029" y1="272.0602" x2="215.6549" y2="166.7081">
				<stop offset="0" style="stop-color:#FFFFFF;stop-opacity:0"/>
				<stop offset="0.5" style="stop-color:#FFFFFF"/>
				<stop offset="1" style="stop-color:#FFFFFF;stop-opacity:0"/>
			</linearGradient>
			<path d="M 229.3000030517578 197.6999969482422 L 226.1999969482422 191.10000610351562 L 193.3000030517578 144.39999389648438 L 124.5 213.1999969482422 L 101.4000015258789 263.1000061035156 L 158.6999969482422 268.29998779296875 Z" class="st40" style="opacity: 0.2; fill: url('#SVGID_19_');"/>
		</g><path d="M 98.5 268.3999938964844 L 85.5 279.79998779296875 L 96.80000305175781 266.79998779296875 L 66.0999984741211 278.20001220703125 L 95.80000305175781 264.5 L 78.5999984741211 263.3999938964844 L 95.9000015258789 262.20001220703125 L 72.30000305175781 251.10000610351562 L 96.80000305175781 259.8999938964844 L 85.5 246.89999389648438 L 98.4000015258789 258.29998779296875 L 87.0999984741211 227.60000610351562 L 100.69999694824219 257.29998779296875 L 101.9000015258789 240.10000610351562 L 103 257.3999938964844 L 114.0999984741211 233.8000030517578 L 105.30000305175781 258.29998779296875 L 118.30000305175781 246.89999389648438 L 107 259.8999938964844 L 137.60000610351562 248.5 L 107.9000015258789 262.20001220703125 L 125.0999984741211 263.3999938964844 L 107.80000305175781 264.5 L 129.39999389648438 274.79998779296875 L 106.9000015258789 266.70001220703125 L 118.30000305175781 279.79998779296875 L 105.4000015258789 268.3999938964844 L 116.69999694824219 299.1000061035156 L 103 269.3999938964844 L 101.9000015258789 286.6000061035156 L 100.69999694824219 269.29998779296875 L 89.5999984741211 292.8999938964844 Z" class="st17" style="opacity: 0.4; fill: rgb(255, 255, 255);" transform="matrix(1, 0, 0, 1, -2.842170943040401e-14, 0)"/><path d="M 212.8000030517578 139 L 199.8000030517578 150.39999389648438 L 211.1999969482422 137.39999389648438 L 180.5 148.8000030517578 L 210.1999969482422 135.10000610351562 L 193 133.89999389648438 L 210.3000030517578 132.8000030517578 L 186.6999969482422 121.69999694824219 L 211.1999969482422 130.5 L 199.8000030517578 117.5 L 212.8000030517578 128.8000030517578 L 201.39999389648438 98.19999694824219 L 215.10000610351562 127.9000015258789 L 216.3000030517578 110.69999694824219 L 217.39999389648438 128 L 228.5 104.4000015258789 L 219.6999969482422 128.89999389648438 L 232.6999969482422 117.5 L 221.39999389648438 130.5 L 252 119.0999984741211 L 222.3000030517578 132.8000030517578 L 239.5 133.89999389648438 L 222.1999969482422 135.10000610351562 L 243.8000030517578 145.3000030517578 L 221.3000030517578 137.3000030517578 L 232.6999969482422 150.39999389648438 L 219.6999969482422 139 L 231.10000610351562 169.6999969482422 L 217.39999389648438 140 L 216.3000030517578 157.1999969482422 L 215.10000610351562 139.89999389648438 L 204 163.5 Z" class="st17" style="opacity: 0.4; fill: rgb(255, 255, 255);" transform="matrix(1, 0, 0, 1, -2.842170943040401e-14, 0)"/>
</svg>