<?xml version="1.0" encoding="utf-8"?>
<svg id="master-artboard" viewBox="0 0 350 350" version="1.1" xmlns="http://www.w3.org/2000/svg" x="0px" y="0px" style="enable-background:new 0 0 1400 980;" width="350px" height="350px"><rect id="ee-background" x="0" y="0" width="350" height="350" style="fill: white; fill-opacity: 0; pointer-events: none;"/>

<path d="M 0 0 H 1400 V 980 H 0 V 0 Z" transform="matrix(1, 0, 0, 1, -356.85130310058594, -2.9737579822540283)"/>
<g transform="matrix(1, 0, 0, 1, -356.85130310058594, -2.9737579822540283)">
			<g>
				<path d="M 457.899994 109.400002 H 602.099991 V 253.599998 H 457.899994 V 109.400002 Z" class="st41" style="fill: rgb(96, 201, 221);"/>
				
					<path d="M 457.899994 109.400002 H 602.099991 V 253.599998 H 457.899994 V 109.400002 Z" transform="matrix(0.7071 -0.7071 0.7071 0.7071 26.904 427.8736)" class="st42" style="fill: rgb(120, 207, 225);"/>
				<path d="M 559.7999877929688 109.4000015258789 L 602 109.4000015258789 L 583.7000122070312 68 L 530 79.5 Z" class="st43" style="fill: rgb(68, 196, 218);"/>
				<path d="M 500.1000061035156 109.4000015258789 L 457.8999938964844 109.4000015258789 L 476.20001220703125 68 L 530 79.5 Z" class="st43" style="fill: rgb(68, 196, 218);"/>
				<path d="M 500.1000061035156 253.5 L 457.8999938964844 253.5 L 476.20001220703125 294.8999938964844 L 530 283.3999938964844 Z" class="st43" style="fill: rgb(68, 196, 218);"/>
				<path d="M 559.7999877929688 253.5 L 602 253.5 L 583.7000122070312 294.8999938964844 L 530 283.3999938964844 Z" class="st43" style="fill: rgb(68, 196, 218);"/>
				<path d="M 457.8999938964844 151.60000610351562 L 457.8999938964844 109.4000015258789 L 416.5 127.69999694824219 L 428 181.5 Z" class="st43" style="fill: rgb(68, 196, 218);"/>
				<path d="M 457.8999938964844 211.3000030517578 L 457.8999938964844 253.5 L 416.5 235.1999969482422 L 428 181.5 Z" class="st43" style="fill: rgb(68, 196, 218);"/>
				<path d="M 602 211.3000030517578 L 602 253.5 L 643.4000244140625 235.1999969482422 L 631.9000244140625 181.5 Z" class="st43" style="fill: rgb(68, 196, 218);"/>
				<path d="M 602 151.60000610351562 L 602 109.4000015258789 L 643.4000244140625 127.69999694824219 L 631.9000244140625 181.5 Z" class="st43" style="fill: rgb(68, 196, 218);"/>
				<path d="M 530 79.5 L 476.20001220703125 68 L 503.1000061035156 39.599998474121094 L 556.7999877929688 39.599998474121094 L 583.7000122070312 68 Z" class="st44" style="fill: rgb(3, 191, 215);"/>
				<path d="M 530 283.3999938964844 L 583.7000122070312 294.8999938964844 L 556.7999877929688 323.3999938964844 L 503.1000061035156 323.3999938964844 L 476.20001220703125 294.8999938964844 Z" class="st44" style="fill: rgb(3, 191, 215);"/>
				<path d="M 428 181.5 L 416.5 235.1999969482422 L 388 208.3000030517578 L 388 154.60000610351562 L 416.5 127.69999694824219 Z" class="st44" style="fill: rgb(3, 191, 215);"/>
				<path d="M 631.9000244140625 181.5 L 643.4000244140625 127.69999694824219 L 671.9000244140625 154.60000610351562 L 671.9000244140625 208.3000030517578 L 643.4000244140625 235.1999969482422 Z" class="st44" style="fill: rgb(3, 191, 215);"/>
				<linearGradient id="SVGID_20_" gradientUnits="userSpaceOnUse" x1="408.0234" y1="235.1987" x2="408.0234" y2="127.7192">
					<stop offset="0" style="stop-color:#FFFFFF"/>
					<stop offset="8.962709e-02" style="stop-color:#FFFFFF;stop-opacity:0.9104"/>
					<stop offset="1" style="stop-color:#FFFFFF;stop-opacity:0"/>
				</linearGradient>
				<path d="M 428 181.5 L 416.5 235.1999969482422 L 388 208.3000030517578 L 388 154.60000610351562 L 416.5 127.69999694824219 Z" class="st45" style="opacity: 0.5; fill: url('#SVGID_20_');"/>
				<linearGradient id="SVGID_21_" gradientUnits="userSpaceOnUse" x1="651.8809" y1="235.1987" x2="651.8809" y2="127.7192">
					<stop offset="0" style="stop-color:#FFFFFF"/>
					<stop offset="8.962709e-02" style="stop-color:#FFFFFF;stop-opacity:0.9104"/>
					<stop offset="1" style="stop-color:#FFFFFF;stop-opacity:0"/>
				</linearGradient>
				<path d="M 631.9000244140625 181.5 L 643.4000244140625 127.69999694824219 L 671.9000244140625 154.60000610351562 L 671.9000244140625 208.3000030517578 L 643.4000244140625 235.1999969482422 Z" class="st46" style="opacity: 0.5; fill: url('#SVGID_21_');"/>
				<path d="M 602 109.4000015258789 L 583.7000122070312 68 L 611.2999877929688 62.099998474121094 L 649.2999877929688 100.0999984741211 L 643.4000244140625 127.69999694824219 Z" class="st44" style="fill: rgb(3, 191, 215);"/>
				<path d="M 457.8999938964844 109.4000015258789 L 476.20001220703125 68 L 448.6000061035156 62.099998474121094 L 410.6000061035156 100.0999984741211 L 416.5 127.69999694824219 Z" class="st44" style="fill: rgb(3, 191, 215);"/>
				<path d="M 457.8999938964844 253.60000610351562 L 476.20001220703125 294.8999938964844 L 448.6000061035156 300.79998779296875 L 410.6000061035156 262.79998779296875 L 416.5 235.1999969482422 Z" class="st44" style="fill: rgb(3, 191, 215);"/>
				<path d="M 602 253.60000610351562 L 583.7000122070312 294.8999938964844 L 611.2999877929688 300.79998779296875 L 649.2999877929688 262.79998779296875 L 643.4000244140625 235.1999969482422 Z" class="st44" style="fill: rgb(3, 191, 215);"/>
				<g>
					<path d="M 583.7000122070312 68 L 611.2999877929688 62.099998474121094 L 556.7999877929688 39.599998474121094 Z" class="st41" style="fill: rgb(96, 201, 221);"/>
				</g>
				<g>
					<path d="M 476.6000061035156 68 L 449 62.099998474121094 L 503.3999938964844 39.599998474121094 Z" class="st41" style="fill: rgb(96, 201, 221);"/>
				</g>
				<g>
					<path d="M 476.6000061035156 294.8999938964844 L 449 300.79998779296875 L 503.3999938964844 323.3999938964844 Z" class="st41" style="fill: rgb(96, 201, 221);"/>
				</g>
				<g>
					<path d="M 583.7000122070312 294.8999938964844 L 611.2999877929688 300.79998779296875 L 556.7999877929688 323.3999938964844 Z" class="st41" style="fill: rgb(96, 201, 221);"/>
				</g>
				<g>
					<path d="M 416.70001220703125 127.9000015258789 L 410.79998779296875 100.30000305175781 L 388.20001220703125 154.8000030517578 Z" class="st41" style="fill: rgb(96, 201, 221);"/>
				</g>
				<g>
					<path d="M 416.70001220703125 235 L 410.79998779296875 262.6000061035156 L 388.20001220703125 208.10000610351562 Z" class="st41" style="fill: rgb(96, 201, 221);"/>
				</g>
				<g>
					<path d="M 643.5999755859375 235 L 649.5 262.6000061035156 L 672 208.10000610351562 Z" class="st41" style="fill: rgb(96, 201, 221);"/>
				</g>
				<g>
					<path d="M 643.5999755859375 127.9000015258789 L 649.5 100.30000305175781 L 672 154.8000030517578 Z" class="st41" style="fill: rgb(96, 201, 221);"/>
				</g>
			</g>
			<linearGradient id="SVGID_22_" gradientUnits="userSpaceOnUse" x1="529.9551" y1="283.4106" x2="529.9551" y2="79.5093">
				<stop offset="0" style="stop-color:#FFFFFF"/>
				<stop offset="8.962709e-02" style="stop-color:#FFFFFF;stop-opacity:0.9104"/>
				<stop offset="1" style="stop-color:#FFFFFF;stop-opacity:0"/>
			</linearGradient>
			<path d="M 631.9000244140625 181.5 L 530 283.3999938964844 L 428 181.5 L 530 79.5 Z" class="st47" style="opacity: 0.3; fill: url('#SVGID_22_');"/>
			<linearGradient id="SVGID_23_" gradientUnits="userSpaceOnUse" x1="428.0034" y1="166.4712" x2="631.9067" y2="166.4712">
				<stop offset="0" style="stop-color:#FFFFFF;stop-opacity:0"/>
				<stop offset="0.5" style="stop-color:#FFFFFF"/>
				<stop offset="1" style="stop-color:#FFFFFF;stop-opacity:0"/>
			</linearGradient>
			<path d="M 428 181.5 L 462.3999938964844 215.89999389648438 L 597.5 215.89999389648438 L 631.9000244140625 181.5 L 567.5 117.0999984741211 L 492.3999938964844 117.0999984741211 Z" class="st48" style="opacity: 0.3; fill: url('#SVGID_23_');"/>
		</g><path d="M 424.6000061035156 186.5 L 411.6000061035156 197.89999389648438 L 422.8999938964844 184.89999389648438 L 392.20001220703125 196.3000030517578 L 421.8999938964844 182.60000610351562 L 404.79998779296875 181.5 L 422 180.3000030517578 L 398.3999938964844 169.1999969482422 L 423 178 L 411.6000061035156 165 L 424.5 176.39999389648438 L 413.20001220703125 145.6999969482422 L 426.8999938964844 175.39999389648438 L 428 158.1999969482422 L 429.1000061035156 175.5 L 440.20001220703125 151.89999389648438 L 431.3999938964844 176.39999389648438 L 444.3999938964844 165 L 433.1000061035156 178 L 463.79998779296875 166.60000610351562 L 434.1000061035156 180.3000030517578 L 451.20001220703125 181.5 L 433.8999938964844 182.60000610351562 L 455.5 192.89999389648438 L 433 184.89999389648438 L 444.3999938964844 197.89999389648438 L 431.5 186.60000610351562 L 442.79998779296875 217.1999969482422 L 429.1000061035156 187.5 L 428 204.6999969482422 L 426.8999938964844 187.39999389648438 L 415.79998779296875 211 Z" class="st17" style="opacity: 0.4; fill: rgb(255, 255, 255);" transform="matrix(1, 0, 0, 1, -356.85130310058594, -2.9737579822540283)"/><path d="M 615.4000244140625 279.29998779296875 L 602.4000244140625 290.70001220703125 L 613.7000122070312 277.70001220703125 L 583.0999755859375 289 L 612.7999877929688 275.3999938964844 L 595.5999755859375 274.20001220703125 L 612.7999877929688 273.1000061035156 L 589.2999877929688 262 L 613.7999877929688 270.79998779296875 L 602.4000244140625 257.79998779296875 L 615.2999877929688 269.1000061035156 L 604 238.5 L 617.7000122070312 268.20001220703125 L 618.7999877929688 251 L 620 268.29998779296875 L 631.0999755859375 244.6999969482422 L 622.2000122070312 269.20001220703125 L 635.2000122070312 257.79998779296875 L 623.9000244140625 270.79998779296875 L 654.5999755859375 259.3999938964844 L 624.9000244140625 273.1000061035156 L 642.0999755859375 274.20001220703125 L 624.7999877929688 275.3999938964844 L 646.4000244140625 285.6000061035156 L 623.7999877929688 277.6000061035156 L 635.2000122070312 290.70001220703125 L 622.2999877929688 279.29998779296875 L 633.5999755859375 310 L 620 280.29998779296875 L 618.7999877929688 297.5 L 617.7000122070312 280.20001220703125 L 606.5999755859375 303.79998779296875 Z" class="st17" style="opacity: 0.4; fill: rgb(255, 255, 255);" transform="matrix(1, 0, 0, 1, -356.85130310058594, -2.9737579822540283)"/>
</svg>