<?xml version="1.0" encoding="utf-8"?>
<svg id="master-artboard" viewBox="0 0 350 350" version="1.1" xmlns="http://www.w3.org/2000/svg" x="0px" y="0px" style="enable-background:new 0 0 1400 980;" width="350px" height="350px"><rect id="ee-background" x="0" y="0" width="350" height="350" style="fill: white; fill-opacity: 0; pointer-events: none;"/>

<path d="M 0 0 H 1400 V 980 H 0 V 0 Z" transform="matrix(1, 0, 0, 1, -1046.7638854980469, -620.0292053222656)"/>
<g transform="matrix(1, 0, 0, 1, -1046.7638854980469, -620.0292053222656)">
			<g>
				<path d="M 1276.699951171875 775 L 1227.5 725.7999877929688 L 1178.4000244140625 775 L 1178.4000244140625 824.0999755859375 L 1227.5 873.2999877929688 L 1276.699951171875 824.0999755859375 Z" class="st57" style="fill: rgb(255, 236, 188);"/>
				<path d="M 1276.699951171875 775 L 1276.699951171875 824.0999755859375 L 1355.9000244140625 799.5999755859375 Z" class="st58" style="fill: rgb(255, 226, 147);"/>
				<path d="M 1227.5 658.7000122070312 L 1227.5 725.7999877929688 L 1284.0999755859375 720.7999877929688 Z" class="st59" style="fill: rgb(255, 212, 79);"/>
				<path d="M 1284.0999755859375 720.7999877929688 L 1276.699951171875 775 L 1355.9000244140625 799.5999755859375 Z" class="st60" style="fill: rgb(255, 203, 5);"/>
				<path d="M 1284.0999755859375 720.7999877929688 L 1284.0999755859375 720.7999877929688 L 1284.0999755859375 720.7999877929688 Z" class="st9" style="fill: rgb(170, 104, 171);"/>
				<path d="M 1284.0999755859375 720.7999877929688 L 1227.5 725.7999877929688 L 1276.699951171875 775 L 1284.0999755859375 720.7999877929688 Z" class="st58" style="fill: rgb(255, 226, 147);"/>
				<path d="M 1178.4000244140625 775 L 1178.4000244140625 824.0999755859375 L 1099.0999755859375 799.5999755859375 Z" class="st58" style="fill: rgb(255, 226, 147);"/>
				<path d="M 1227.5 658.7000122070312 L 1227.5 725.7999877929688 L 1170.9000244140625 720.7999877929688 Z" class="st60" style="fill: rgb(255, 203, 5);"/>
				<path d="M 1170.9000244140625 720.7999877929688 L 1178.4000244140625 775 L 1099.0999755859375 799.5999755859375 Z" class="st59" style="fill: rgb(255, 212, 79);"/>
				<path d="M 1170.9000244140625 720.7999877929688 L 1170.9000244140625 720.7999877929688 L 1170.9000244140625 720.7999877929688 Z" class="st9" style="fill: rgb(170, 104, 171);"/>
				<path d="M 1170.9000244140625 720.7999877929688 L 1227.5 725.7999877929688 L 1178.4000244140625 775 L 1170.9000244140625 720.7999877929688 Z" class="st58" style="fill: rgb(255, 226, 147);"/>
				<path d="M 1227.5 940.4000244140625 L 1227.5 873.2999877929688 L 1284.0999755859375 878.2999877929688 Z" class="st60" style="fill: rgb(255, 203, 5);"/>
				<path d="M 1284.0999755859375 878.2999877929688 L 1276.699951171875 824.0999755859375 L 1355.9000244140625 799.5999755859375 Z" class="st59" style="fill: rgb(255, 212, 79);"/>
				<path d="M 1284.0999755859375 878.2999877929688 L 1284.0999755859375 878.2999877929688 L 1284.0999755859375 878.2999877929688 Z" class="st9" style="fill: rgb(170, 104, 171);"/>
				<path d="M 1284.0999755859375 878.2999877929688 L 1227.5 873.2999877929688 L 1276.699951171875 824.0999755859375 L 1284.0999755859375 878.2999877929688 Z" class="st58" style="fill: rgb(255, 226, 147);"/>
				<path d="M 1227.5 940.4000244140625 L 1227.5 873.2999877929688 L 1170.9000244140625 878.2999877929688 Z" class="st59" style="fill: rgb(255, 212, 79);"/>
				<path d="M 1170.9000244140625 878.2999877929688 L 1178.4000244140625 824.0999755859375 L 1099.0999755859375 799.5999755859375 Z" class="st60" style="fill: rgb(255, 203, 5);"/>
				<path d="M 1170.9000244140625 878.2999877929688 L 1170.9000244140625 878.2999877929688 L 1170.9000244140625 878.2999877929688 Z" class="st9" style="fill: rgb(170, 104, 171);"/>
				<path d="M 1170.9000244140625 878.2999877929688 L 1227.5 873.2999877929688 L 1178.4000244140625 824.0999755859375 L 1170.9000244140625 878.2999877929688 Z" class="st58" style="fill: rgb(255, 226, 147);"/>
			</g>
			<linearGradient id="SVGID_28_" gradientUnits="userSpaceOnUse" x1="1227.5208" y1="725.8091" x2="1227.5208" y2="873.3091">
				<stop offset="0" style="stop-color:#FFFFFF"/>
				<stop offset="8.962709e-02" style="stop-color:#FFFFFF;stop-opacity:0.9104"/>
				<stop offset="1" style="stop-color:#FFFFFF;stop-opacity:0"/>
			</linearGradient>
			<path d="M 1276.699951171875 775 L 1227.5 725.7999877929688 L 1178.4000244140625 775 L 1178.4000244140625 824.0999755859375 L 1227.5 873.2999877929688 L 1276.699951171875 824.0999755859375 Z" class="st61" style="opacity: 0.5; fill: url('#SVGID_28_');"/>
			<linearGradient id="SVGID_29_" gradientUnits="userSpaceOnUse" x1="1316.2991" y1="720.8057" x2="1316.2991" y2="799.5581">
				<stop offset="0" style="stop-color:#FFFFFF"/>
				<stop offset="1" style="stop-color:#FFFFFF;stop-opacity:0"/>
			</linearGradient>
			<path d="M 1284.0999755859375 720.7999877929688 L 1276.699951171875 775 L 1355.9000244140625 799.5999755859375 Z" class="st62" style="opacity: 0.5; fill: url('#SVGID_29_');"/>
			<linearGradient id="SVGID_30_" gradientUnits="userSpaceOnUse" x1="1138.7424" y1="720.8057" x2="1138.7424" y2="799.5581">
				<stop offset="0" style="stop-color:#FFFFFF"/>
				<stop offset="1" style="stop-color:#FFFFFF;stop-opacity:0"/>
			</linearGradient>
			<path d="M 1170.9000244140625 720.7999877929688 L 1178.4000244140625 775 L 1099.0999755859375 799.5999755859375 Z" class="st63" style="opacity: 0.5; fill: url('#SVGID_30_');"/>
			<linearGradient id="SVGID_31_" gradientUnits="userSpaceOnUse" x1="1178.3535" y1="799.262" x2="1276.688" y2="799.262">
				<stop offset="0" style="stop-color:#FFFFFF;stop-opacity:0"/>
				<stop offset="0.5" style="stop-color:#FFFFFF"/>
				<stop offset="1" style="stop-color:#FFFFFF;stop-opacity:0"/>
			</linearGradient>
			<path d="M 1193.5999755859375 759.7000122070312 L 1178.4000244140625 775 L 1178.4000244140625 805 L 1262 838.7999877929688 L 1276.699951171875 824.0999755859375 L 1276.699951171875 793.2999877929688 Z" class="st64" style="opacity: 0.4; fill: url('#SVGID_31_');"/>
		</g><path d="M 1174.9000244140625 780 L 1161.9000244140625 791.4000244140625 L 1173.300048828125 778.5 L 1142.5999755859375 789.7999877929688 L 1172.300048828125 776.0999755859375 L 1155.0999755859375 775 L 1172.4000244140625 773.7999877929688 L 1148.800048828125 762.7000122070312 L 1173.300048828125 771.5999755859375 L 1161.9000244140625 758.5 L 1174.9000244140625 769.9000244140625 L 1163.5 739.2000122070312 L 1177.199951171875 768.9000244140625 L 1178.4000244140625 751.7000122070312 L 1179.5 769 L 1190.5999755859375 745.4000244140625 L 1181.800048828125 769.9000244140625 L 1194.800048828125 758.5 L 1183.4000244140625 771.5 L 1214.0999755859375 760.2000122070312 L 1184.4000244140625 773.7999877929688 L 1201.5999755859375 775 L 1184.300048828125 776.0999755859375 L 1205.9000244140625 786.4000244140625 L 1183.4000244140625 778.4000244140625 L 1194.800048828125 791.4000244140625 L 1181.800048828125 780.0999755859375 L 1193.199951171875 810.7000122070312 L 1179.5 781 L 1178.4000244140625 798.2000122070312 L 1177.199951171875 781 L 1166.0999755859375 804.5 Z" class="st17" style="opacity: 0.4; fill: rgb(255, 255, 255);" transform="matrix(1, 0, 0, 1, -1046.7638854980469, -620.0292053222656)"/><path d="M 1241.800048828125 899.2999877929688 L 1228.800048828125 910.7000122070312 L 1240.0999755859375 897.7999877929688 L 1209.5 909.0999755859375 L 1239.199951171875 895.4000244140625 L 1222 894.2999877929688 L 1239.300048828125 893.2000122070312 L 1215.699951171875 882.0999755859375 L 1240.199951171875 890.9000244140625 L 1228.800048828125 877.9000244140625 L 1241.800048828125 889.2000122070312 L 1230.4000244140625 858.5 L 1244.0999755859375 888.2000122070312 L 1245.199951171875 871.0999755859375 L 1246.4000244140625 888.2999877929688 L 1257.5 864.7999877929688 L 1248.699951171875 889.2999877929688 L 1261.699951171875 877.9000244140625 L 1250.300048828125 890.7999877929688 L 1281 879.5 L 1251.300048828125 893.2000122070312 L 1268.5 894.2999877929688 L 1251.199951171875 895.5 L 1272.800048828125 905.7000122070312 L 1250.300048828125 897.7000122070312 L 1261.699951171875 910.7000122070312 L 1248.699951171875 899.4000244140625 L 1260 930.0999755859375 L 1246.4000244140625 900.4000244140625 L 1245.199951171875 917.5 L 1244.0999755859375 900.2999877929688 L 1233 923.9000244140625 Z" class="st17" style="opacity: 0.4; fill: rgb(255, 255, 255);" transform="matrix(1, 0, 0, 1, -1046.7638854980469, -620.0292053222656)"/>
</svg>