<?xml version="1.0" encoding="utf-8"?>
<svg id="master-artboard" viewBox="0 0 350 350" version="1.1" xmlns="http://www.w3.org/2000/svg" x="0px" y="0px" style="enable-background:new 0 0 1400 980;" width="350px" height="350px"><rect id="ee-background" x="0" y="0" width="350" height="350" style="fill: white; fill-opacity: 0; pointer-events: none;"/>

<path d="M 0 0 H 1400 V 980 H 0 V 0 Z" transform="matrix(1, 0, 0, 1, -695.8601837158203, -316.70567321777344)"/>
<g transform="matrix(1, 0, 0, 1, -695.8601837158203, -316.70567321777344)">
			<g>
				<path d="M 964.5 585.0999755859375 L 773.2999877929688 585.0999755859375 L 728 539.7999877929688 L 728 441.20001220703125 L 773.2999877929688 395.8999938964844 L 964.5 395.8999938964844 L 1009.7999877929688 441.20001220703125 L 1009.7999877929688 539.7999877929688 Z" class="st74" style="fill: rgb(241, 91, 64);"/>
				<g>
					<path d="M 964.5 539.7999877929688 L 868.9000244140625 554.9000244140625 L 773.2999877929688 539.7999877929688 L 758.2000122070312 490.5 L 773.2999877929688 441.20001220703125 L 868.9000244140625 426.1000061035156 L 964.5 441.20001220703125 L 979.5999755859375 490.5 Z" class="st75" style="fill: rgb(244, 124, 94);"/>
					<path d="M 1009.7999877929688 441.20001220703125 L 964.5 441.20001220703125 L 964.5 395.8999938964844 Z" class="st75" style="fill: rgb(244, 124, 94);"/>
					<path d="M 728 441.20001220703125 L 773.2999877929688 441.20001220703125 L 773.2999877929688 395.8999938964844 Z" class="st75" style="fill: rgb(244, 124, 94);"/>
					<path d="M 728 539.7999877929688 L 773.2999877929688 539.7999877929688 L 773.2999877929688 585.0999755859375 Z" class="st75" style="fill: rgb(244, 124, 94);"/>
					<path d="M 1009.7999877929688 539.7999877929688 L 964.5 539.7999877929688 L 964.5 585.0999755859375 Z" class="st75" style="fill: rgb(244, 124, 94);"/>
				</g>
				<path d="M 773.299988 441.200012 H 964.499985 V 539.800011 H 773.299988 V 441.200012 Z" class="st76" style="fill: rgb(245, 139, 109);"/>
				<linearGradient id="SVGID_36_" gradientUnits="userSpaceOnUse" x1="796.4392" y1="562.9417" x2="941.3069" y2="418.074">
					<stop offset="0" style="stop-color:#FFFFFF"/>
					<stop offset="8.962709e-02" style="stop-color:#FFFFFF;stop-opacity:0.9104"/>
					<stop offset="1" style="stop-color:#FFFFFF;stop-opacity:0"/>
				</linearGradient>
				<path d="M 773.299988 441.200012 H 964.499985 V 539.800011 H 773.299988 V 441.200012 Z" class="st77" style="opacity: 0.5; fill: url('#SVGID_36_');"/>
				<linearGradient id="SVGID_37_" gradientUnits="userSpaceOnUse" x1="863.9551" y1="539.792" x2="863.9551" y2="441.2236">
					<stop offset="0" style="stop-color:#FFFFFF;stop-opacity:0"/>
					<stop offset="0.5" style="stop-color:#FFFFFF"/>
					<stop offset="1" style="stop-color:#FFFFFF;stop-opacity:0"/>
				</linearGradient>
				<path d="M 882.2999877929688 441.20001220703125 L 803.7999877929688 441.20001220703125 L 845.5999755859375 539.7999877929688 L 924.0999755859375 539.7999877929688 Z" class="st78" style="opacity: 0.4; fill: url('#SVGID_37_');"/>
				<linearGradient id="SVGID_38_" gradientUnits="userSpaceOnUse" x1="750.624" y1="585.124" x2="750.624" y2="539.792">
					<stop offset="0" style="stop-color:#FFFFFF"/>
					<stop offset="8.962709e-02" style="stop-color:#FFFFFF;stop-opacity:0.9104"/>
					<stop offset="1" style="stop-color:#FFFFFF;stop-opacity:0"/>
				</linearGradient>
				<path d="M 728 539.7999877929688 L 773.2999877929688 539.7999877929688 L 773.2999877929688 585.0999755859375 Z" class="st79" style="opacity: 0.4; fill: url('#SVGID_38_');"/>
				<linearGradient id="SVGID_39_" gradientUnits="userSpaceOnUse" x1="987.1221" y1="585.124" x2="987.1221" y2="539.792">
					<stop offset="0" style="stop-color:#FFFFFF"/>
					<stop offset="8.962709e-02" style="stop-color:#FFFFFF;stop-opacity:0.9104"/>
					<stop offset="1" style="stop-color:#FFFFFF;stop-opacity:0"/>
				</linearGradient>
				<path d="M 1009.7999877929688 539.7999877929688 L 964.5 539.7999877929688 L 964.5 585.0999755859375 Z" class="st80" style="opacity: 0.4; fill: url('#SVGID_39_');"/>
			</g>
			<path d="M 769.9000244140625 544.7999877929688 L 756.9000244140625 556.2000122070312 L 768.2000122070312 543.2999877929688 L 737.5 554.5999755859375 L 767.2000122070312 540.9000244140625 L 750.0999755859375 539.7999877929688 L 767.2999877929688 538.5999755859375 L 743.7000122070312 527.5999755859375 L 768.2999877929688 536.4000244140625 L 756.9000244140625 523.4000244140625 L 769.7999877929688 534.7000122070312 L 758.5 504 L 772.2000122070312 533.7000122070312 L 773.2999877929688 516.5999755859375 L 774.4000244140625 533.7999877929688 L 785.5 510.20001220703125 L 776.7000122070312 534.7999877929688 L 789.7000122070312 523.4000244140625 L 778.4000244140625 536.2999877929688 L 809.0999755859375 525 L 779.4000244140625 538.7000122070312 L 796.5 539.7999877929688 L 779.2000122070312 540.9000244140625 L 800.7999877929688 551.2000122070312 L 778.2999877929688 543.2000122070312 L 789.7000122070312 556.2000122070312 L 776.7999877929688 544.9000244140625 L 788.0999755859375 575.5999755859375 L 774.4000244140625 545.9000244140625 L 773.2999877929688 563 L 772.0999755859375 545.7999877929688 L 761 569.2999877929688 Z" class="st17" style="opacity: 0.4; fill: rgb(255, 255, 255);"/>
			<path d="M 988.7999877929688 495.5 L 975.7999877929688 506.8999938964844 L 987.0999755859375 494 L 956.4000244140625 505.29998779296875 L 986.0999755859375 491.6000061035156 L 969 490.5 L 986.2000122070312 489.3999938964844 L 962.7000122070312 478.29998779296875 L 987.2000122070312 487.1000061035156 L 975.7999877929688 474.1000061035156 L 988.7000122070312 485.3999938964844 L 977.4000244140625 454.70001220703125 L 991.0999755859375 484.3999938964844 L 992.2000122070312 467.29998779296875 L 993.4000244140625 484.5 L 1004.5 461 L 995.5999755859375 485.5 L 1008.5999755859375 474.1000061035156 L 997.2999877929688 487 L 1028 475.70001220703125 L 998.2999877929688 489.3999938964844 L 1015.4000244140625 490.5 L 998.2000122070312 491.70001220703125 L 1019.7000122070312 501.8999938964844 L 997.2000122070312 493.8999938964844 L 1008.5999755859375 506.8999938964844 L 995.7000122070312 495.6000061035156 L 1007 526.2999877929688 L 993.4000244140625 496.6000061035156 L 992.2000122070312 513.7000122070312 L 991.0999755859375 496.5 L 980 520.0999755859375 Z" class="st17" style="opacity: 0.4; fill: rgb(255, 255, 255);"/>
		</g>
</svg>